# xmcd
#
# Track frame offsets: 
#        150
#        14525
#        30975
#        45675
#        56850
#        72150
#        95600
#        115650
#        134175
#        148175
#        163125
#        172800
#        194190
#        207575
#        221175
#        242575
#        258525
#        273000
#        290225
#        308725
#
# Disc length: 4439 seconds
#
# Revision: 1
# Processed by: cddbd v1.5.2PL0 Copyright (c) Steve Scherf et al.
# Submitted via: ExactAudioCopy v1.0b3
#
DISCID=44115514
DTITLE=John Denver - The Best Of JOHN DENVER
DYEAR=1998
DGENRE=Pop
TTITLE0=Take Me Home, Country Roads
TTITLE1=Leaving, on a Jet Plane
TTITLE2=Rhymes and Reasons
TTITLE3=Follow Me
TTITLE4=Isabel
TTITLE5=Sunshine on My Shoulders
TTITLE6=My Sweet Lady
TTITLE7=Poems, Prayers and Promises
TTITLE8=Starwood in Aspen
TTITLE9=City of New Orleans
TTITLE10=The Eagle and the Hawk
TTITLE11=Rocky Mountain High
TTITLE12=For Baby (For Bobbie)
TTITLE13=Annie's Song
TTITLE14=Back Home Again
TTITLE15=I'm Sorry
TTITLE16=Shanghai Breezes
TTITLE17=Seasons of the Heart
TTITLE18=Dreamland Express
TTITLE19=If Ever
EXTD=
EXTT0=
EXTT1=
EXTT2=
EXTT3=
EXTT4=
EXTT5=
EXTT6=
EXTT7=
EXTT8=
EXTT9=
EXTT10=
EXTT11=
EXTT12=
EXTT13=
EXTT14=
EXTT15=
EXTT16=
EXTT17=
EXTT18=
EXTT19=
PLAYORDER=
